<svg viewBox="0 0 120 100" xmlns="http://www.w3.org/2000/svg">
  <!-- Outer shield with wider proportions -->
  <path d="M60 8 L105 18 L105 45 C105 62, 95 78, 60 90 C25 78, 15 62, 15 45 L15 18 Z" 
        fill="none" 
        stroke="#2563eb" 
        stroke-width="2.5"/>
  
  <!-- Main shield body -->
  <path d="M60 12 L98 21 L98 44 C98 59, 90 73, 60 84 C30 73, 22 59, 22 44 L22 21 Z" 
        fill="#1e40af"/>
  
  <!-- Shield highlight for depth -->
  <path d="M60 12 L98 21 L98 44 C98 54, 94 64, 85 72 L60 12 Z" 
        fill="#3b82f6" 
        opacity="0.6"/>
  
  <!-- Central security icon -->
  <circle cx="60" cy="40" r="10" fill="#ffffff" opacity="0.9"/>
  <path d="M60 28 L54 50 L66 50 Z" fill="#ffffff" opacity="0.8"/>
  
  <!-- Security badge -->
  <rect x="48" y="55" width="24" height="10" rx="2" fill="#ffffff" opacity="0.7"/>
  <circle cx="60" cy="60" r="2" fill="#1e40af"/>
  
  <!-- Side decorative elements -->
  <circle cx="35" cy="35" r="3" fill="#ffffff" opacity="0.4"/>
  <circle cx="85" cy="35" r="3" fill="#ffffff" opacity="0.4"/>
  
  <!-- Bottom accent -->
  <path d="M45 70 L60 75 L75 70" stroke="#ffffff" stroke-width="2" opacity="0.6" fill="none"/>
</svg>
