<svg viewBox="0 0 100 120" xmlns="http://www.w3.org/2000/svg">
  <!-- Shield outline -->
  <path d="M50 5 L85 20 L85 55 C85 75, 75 95, 50 115 C25 95, 15 75, 15 55 L15 20 Z" 
        fill="none" 
        stroke="#2563eb" 
        stroke-width="3"/>
  
  <!-- Inner shield -->
  <path d="M50 10 L80 22 L80 52 C80 70, 72 88, 50 105 C28 88, 20 70, 20 52 L20 22 Z" 
        fill="#1e40af"/>
  
  <!-- Shield highlight -->
  <path d="M50 10 L80 22 L80 52 C80 65, 75 78, 65 90 L50 10 Z" 
        fill="#3b82f6" 
        opacity="0.7"/>
  
  <!-- Inner design elements -->
  <circle cx="50" cy="45" r="8" fill="#ffffff" opacity="0.9"/>
  <path d="M50 35 L45 55 L55 55 Z" fill="#ffffff" opacity="0.8"/>
  
  <!-- Security elements -->
  <rect x="40" y="60" width="20" height="12" rx="2" fill="#ffffff" opacity="0.6"/>
  <circle cx="50" cy="66" r="2" fill="#1e40af"/>
</svg>